<?xml version="1.0" encoding="UTF-8" standalone="no"?>
<!-- Created with Inkscape (http://www.inkscape.org/) -->

<svg
   width="43.972271mm"
   height="21.880243mm"
   viewBox="0 0 43.972271 21.880244"
   version="1.1"
   id="svg5"
   inkscape:version="1.1.2 (b8e25be8, 2022-02-05)"
   sodipodi:docname="table-calendar.svg"
   xmlns:inkscape="http://www.inkscape.org/namespaces/inkscape"
   xmlns:sodipodi="http://sodipodi.sourceforge.net/DTD/sodipodi-0.dtd"
   xmlns="http://www.w3.org/2000/svg"
   xmlns:svg="http://www.w3.org/2000/svg">
  <sodipodi:namedview
     id="namedview7"
     pagecolor="#ffffff"
     bordercolor="#666666"
     borderopacity="1.0"
     inkscape:pageshadow="2"
     inkscape:pageopacity="0.0"
     inkscape:pagecheckerboard="0"
     inkscape:document-units="mm"
     showgrid="false"
     showguides="false"
     inkscape:zoom="0.67036047"
     inkscape:cx="225.99781"
     inkscape:cy="25.359491"
     inkscape:window-width="1317"
     inkscape:window-height="958"
     inkscape:window-x="0"
     inkscape:window-y="38"
     inkscape:window-maximized="0"
     inkscape:current-layer="layer1"
     fit-margin-top="0"
     fit-margin-left="0"
     fit-margin-right="0"
     fit-margin-bottom="0" />
  <defs
     id="defs2" />
  <g
     inkscape:label="Layer 1"
     inkscape:groupmode="layer"
     id="layer1"
     style="display:none"
     transform="translate(-59.373311,-161.03154)">
    <path
       style="fill:#502d16;stroke:#000000;stroke-width:0.296941px;stroke-linecap:butt;stroke-linejoin:miter;stroke-opacity:1"
       d="m 50.873091,226.07585 0.341428,61.06689 H 72.04176 l -0.682861,-60.20679 z"
       id="path859" />
    <path
       style="fill:#502d16;stroke:#000000;stroke-width:0.296941px;stroke-linecap:butt;stroke-linejoin:miter;stroke-opacity:1"
       d="m 141.87391,224.89787 0.34143,61.06689 h 20.82724 l -0.68286,-60.20679 z"
       id="path859-0" />
    <path
       style="fill:#784421;fill-opacity:1;stroke:#000000;stroke-width:0.264583px;stroke-linecap:butt;stroke-linejoin:miter;stroke-opacity:1"
       d="m 49.644696,138.81542 102.633144,0.14664 33.11872,101.40476 -153.302128,-1.70716 z"
       id="path857" />
  </g>
  <g
     inkscape:groupmode="layer"
     id="layer7"
     inkscape:label="calendar"
     style="display:inline"
     transform="translate(-59.373311,-161.03154)">
    <path
       style="display:inline;fill:#e0e6e1;fill-opacity:1;stroke:#000000;stroke-width:0.264583px;stroke-linecap:butt;stroke-linejoin:miter;stroke-opacity:1"
       d="m 59.522489,182.77949 2.549382,-21.17094 38.240709,-0.44337 2.8819,21.61431 z"
       id="path5466" />
    <path
       style="display:inline;fill:none;stroke:#000000;stroke-width:0.264583px;stroke-linecap:butt;stroke-linejoin:miter;stroke-opacity:1"
       d="m 65.286307,163.71456 -1.995167,16.51555 35.913009,0.33253 -1.219269,-17.29145 z"
       id="path5600" />
    <path
       style="display:inline;fill:none;stroke:#000000;stroke-width:0.264583px;stroke-linecap:butt;stroke-linejoin:miter;stroke-opacity:1"
       d="m 69.35178,164.04709 -1.773481,16.07218 h -0.110845"
       id="path5602" />
    <path
       style="display:inline;fill:none;stroke:#000000;stroke-width:0.264583px;stroke-linecap:butt;stroke-linejoin:miter;stroke-opacity:1"
       d="m 74.118013,163.93624 -0.775899,16.29387"
       id="path5604" />
    <path
       style="display:inline;fill:none;stroke:#000000;stroke-width:0.264583px;stroke-linecap:butt;stroke-linejoin:miter;stroke-opacity:1"
       d="M 79.992673,163.8254 79.5493,180.23011"
       id="path5606" />
    <path
       style="display:inline;fill:none;stroke:#000000;stroke-width:0.264583px;stroke-linecap:butt;stroke-linejoin:miter;stroke-opacity:1"
       d="m 85.398915,163.8254 0.332528,16.29387"
       id="path5608" />
    <path
       style="display:inline;fill:none;stroke:#000000;stroke-width:0.264583px;stroke-linecap:butt;stroke-linejoin:miter;stroke-opacity:1"
       d="m 90.054304,163.71456 1.219269,16.51555"
       id="path5610" />
    <path
       style="display:inline;fill:none;stroke:#000000;stroke-width:0.264583px;stroke-linecap:butt;stroke-linejoin:miter;stroke-opacity:1"
       d="m 94.437918,163.49287 0.775899,16.84808 v 0 0"
       id="path5725" />
    <path
       style="display:inline;fill:none;stroke:#000000;stroke-width:0.264583px;stroke-linecap:butt;stroke-linejoin:miter;stroke-opacity:1"
       d="M 64.953779,167.48321 97.98488,167.03984"
       id="path5760" />
    <path
       style="display:inline;fill:none;stroke:#000000;stroke-width:0.264583px;stroke-linecap:butt;stroke-linejoin:miter;stroke-opacity:1"
       d="M 64.288722,171.69523 H 98.539095"
       id="path5762" />
    <path
       style="display:inline;fill:none;stroke:#000000;stroke-width:0.264583px;stroke-linecap:butt;stroke-linejoin:miter;stroke-opacity:1"
       d="M 64.067038,175.90725 H 98.760779"
       id="path5764" />
    <path
       style="display:inline;fill:none;stroke:#e90000;stroke-width:0.707;stroke-linecap:round;stroke-linejoin:miter;stroke-miterlimit:4;stroke-dasharray:none;stroke-opacity:1"
       d="m 86.324322,172.39044 3.591132,2.8216"
       id="path5766" />
    <path
       style="display:inline;fill:none;stroke:#e90000;stroke-width:0.707;stroke-linecap:round;stroke-linejoin:miter;stroke-miterlimit:4;stroke-dasharray:none;stroke-opacity:1"
       d="m 89.892518,172.22674 -3.739986,2.6211"
       id="path5766-6" />
  </g>
  <g
     inkscape:groupmode="layer"
     id="layer6"
     inkscape:label="sign"
     style="display:none"
     transform="translate(-59.373311,-161.03154)">
    <path
       style="fill:#d7d7d5;fill-opacity:1;stroke:#000000;stroke-width:0.264537px;stroke-linecap:butt;stroke-linejoin:miter;stroke-opacity:1"
       d="m 153.35423,228.70458 20.03343,-9.77014 -17.21881,-22.68662 -17.38439,5.13348 z"
       id="path6033" />
    <path
       style="fill:none;stroke:#000000;stroke-width:0.264583px;stroke-linecap:butt;stroke-linejoin:miter;stroke-opacity:1"
       d="m 161.63455,220.75702 c 7.12119,-3.14657 7.12119,-3.14657 7.12119,-3.14657"
       id="path6220" />
    <path
       style="fill:#d6cb5d;fill-opacity:1;stroke:#000000;stroke-width:0.264583px;stroke-linecap:butt;stroke-linejoin:miter;stroke-opacity:1"
       d="m 153.02287,212.31096 2.31853,-2.64975 v 3.14657 l -4.7345,15.1378 -0.47887,-0.87794 -1.03757,-0.23944 -0.79813,0.6385 z"
       id="path11245" />
    <path
       style="fill:#e8e2b7;fill-opacity:1;stroke:#000000;stroke-width:0.264583px;stroke-linecap:butt;stroke-linejoin:miter;stroke-opacity:1"
       d="m 153.02287,212.31096 c 0.58091,0.7458 1.33765,1.30618 2.31853,0.49682 v -3.14657 z"
       id="path11247"
       sodipodi:nodetypes="cccc" />
    <path
       style="fill:#000000;fill-opacity:1;stroke:#000000;stroke-width:0.264583px;stroke-linecap:butt;stroke-linejoin:miter;stroke-opacity:1"
       d="m 155.3414,209.66121 -0.0291,1.33477 -0.67566,-0.46371 0.70481,-0.87106"
       id="path12505" />
    <path
       style="fill:#e8e2b7;fill-opacity:1;stroke:#000000;stroke-width:0.264583px;stroke-linecap:butt;stroke-linejoin:miter;stroke-opacity:1"
       d="m 148.29233,227.4667 0.79813,-0.6385 1.03757,0.23944 0.47887,0.87794 -0.70876,0.91247 -1.29381,-0.29573 z"
       id="path11856" />
    <path
       style="fill:none;stroke:#000000;stroke-width:0.264583px;stroke-linecap:butt;stroke-linejoin:miter;stroke-opacity:1"
       d="m 143.55685,203.97885 c 0.72798,0.48532 1.45596,0.97064 2.18393,1.45596 0.14559,0.0485 0.42502,0.29861 0.43678,0.14559 0.0526,-0.68432 -0.334,-1.35333 -0.29119,-2.03833 0.0698,-1.11686 1.08439,0.70206 2.03834,0.14559 0.42129,-0.24575 -0.0725,-1.0197 0.14559,-1.45595 0.34339,-0.68676 1.08174,0.81627 1.45596,0.58238 2.09542,-1.30964 -2.17665,-1.97863 1.89273,-1.16476 0.21283,0.0426 0.38826,0.19413 0.58238,0.29119 0.29119,-0.19412 0.52361,-0.58238 0.87357,-0.58238 0.39128,0 0.63183,0.63771 1.01917,0.58238 0.24022,-0.0343 -0.10852,-0.51093 0,-0.72797 0.0686,-0.13727 0.30909,-0.0605 0.43679,-0.1456 0.0404,-0.0269 0,-0.0971 0,-0.14559 0.0485,-0.0485 0.0867,-0.11029 0.14559,-0.1456 0.38216,-0.2293 0.85329,-0.31147 0.43679,-0.72798"
       id="path987" />
    <path
       style="fill:none;stroke:#000000;stroke-width:0.264583px;stroke-linecap:butt;stroke-linejoin:miter;stroke-opacity:1"
       d="m 148.94387,210.82183 c -0.14559,-1.0677 -1.0079,-2.28931 -0.43678,-3.2031 0.41475,-0.6636 0.51364,1.60426 1.16476,2.03834 0.29119,0.19412 0.28433,-0.69016 0.58238,-0.87358 0.38107,-0.2345 0.92929,-0.0567 1.31036,-0.29119 0.29805,-0.18341 0.32081,-0.64106 0.58238,-0.87357 0.19534,-0.17363 0.55789,-0.0928 0.72797,-0.29119 0.16105,-0.18789 -0.0445,-0.56955 0.1456,-0.72797 0.18641,-0.15535 0.48631,0.022 0.72798,0 0.29399,-0.0267 0.57911,-0.12457 0.87357,-0.1456 0.38726,-0.0277 0.98069,0.34185 1.16476,0 0.3,-0.55714 -0.0561,-1.26632 -0.1456,-1.89274 -0.0566,-0.39618 -0.62719,-1.38217 -0.29119,-1.16476 1.34021,0.8672 1.82325,2.91191 3.49429,2.91191"
       id="path989" />
  </g>
  <g
     inkscape:groupmode="layer"
     id="layer2"
     inkscape:label="Screen"
     style="display:none"
     transform="translate(-59.373311,-161.03154)">
    <path
       style="fill:#354421;fill-opacity:1;stroke:#000000;stroke-width:0.264583px;stroke-linecap:butt;stroke-linejoin:miter;stroke-opacity:1"
       d="m 61.46239,144.87563 -1.197319,-31.92851 c 4.753,0.38219 8.678882,-1.138 16.363363,5.9866 21.225268,-5.60964 23.876716,-5.49226 45.498136,-0.39911 7.60625,-9.59007 9.79178,-6.61393 14.36783,-9.17945 v 35.91958 l -14.28553,9.7041 -46.37865,0.67267 z"
       id="path1276"
       sodipodi:nodetypes="ccccccccc" />
    <path
       style="fill:none;stroke:#000000;stroke-width:1;stroke-linecap:butt;stroke-linejoin:miter;stroke-miterlimit:4;stroke-dasharray:none;stroke-opacity:1"
       d="m 76.628434,118.93372 -0.798214,36.71779 v 0 0"
       id="path1278" />
    <path
       style="fill:none;stroke:#000000;stroke-width:1;stroke-linecap:butt;stroke-linejoin:miter;stroke-miterlimit:4;stroke-dasharray:none;stroke-opacity:1"
       d="m 122.12657,118.53461 0.0823,36.44423"
       id="path1280"
       sodipodi:nodetypes="cc" />
  </g>
  <g
     inkscape:groupmode="layer"
     id="layer4"
     inkscape:label="sheets"
     style="display:none"
     transform="translate(-59.373311,-161.03154)">
    <path
       style="display:inline;fill:#ddc6b7;fill-opacity:1;stroke:#000000;stroke-width:0.264583px;stroke-linecap:butt;stroke-linejoin:miter;stroke-opacity:1"
       d="m 51.870724,207.86908 c 35.41589,-6.4846 35.16648,-6.23519 35.16648,-6.23519 l -0.74822,21.94788 -35.415893,2.49408 z"
       id="path3576-1" />
    <path
       style="display:inline;fill:#5190b7;fill-opacity:1;stroke:#000000;stroke-width:0.264583px;stroke-linecap:butt;stroke-linejoin:miter;stroke-opacity:1"
       d="m 80.223144,205.48055 4.6181,-1.42096 -0.44405,4.26287 -4.35167,0.62167 z"
       id="path3939-8" />
    <path
       style="display:inline;fill:none;stroke:#000000;stroke-width:0.264583px;stroke-linecap:butt;stroke-linejoin:miter;stroke-opacity:1"
       d="m 75.516224,207.7896 c -0.10336,0.19553 -2.587797,1.63164 -2.309051,1.68739 0.334241,0.0668 1.612861,-0.0602 1.776191,0.26643 0.15942,0.31883 -0.52222,0.48618 -0.79928,0.71047 -0.35941,0.29095 -0.706308,0.59715 -1.065718,0.8881 -0.342054,0.2769 -0.870173,0.46115 -0.976908,0.8881 -0.02773,0.1109 2.061716,0.56914 2.309056,0.71048 0.87697,0.50112 -1.687388,1.45271 -1.687388,1.68738 0,0.0936 0.181432,0.0496 0.26643,0.0888 0.147896,0.0683 2.354168,1.0206 2.220238,1.15453 -0.25328,0.25328 -2.743695,2.14083 -2.486668,2.39786 0.07547,0.0755 0.165912,0.14172 0.26643,0.17762 0.693908,0.24782 1.977608,0.50906 1.598578,0.8881 -0.39329,0.39329 -1.01229,0.46174 -1.509768,0.71047 -0.308785,0.1544 -0.59408,0.35193 -0.888098,0.53286 -0.106966,0.0658 -0.381871,0.21696 -0.26643,0.26643 0.48732,0.20885 1.034108,0.20622 1.509765,0.44405"
       id="path4108-8" />
    <path
       style="display:inline;fill:none;stroke:#000000;stroke-width:0.264583px;stroke-linecap:butt;stroke-linejoin:miter;stroke-opacity:1"
       d="m 67.345732,209.74342 c -1.480162,0.62166 -3.242948,0.79577 -4.440487,1.865 -0.08037,0.0718 3.503658,0.46705 3.285961,1.06572 -0.101166,0.27821 -0.316674,0.50824 -0.532857,0.71047 -0.705835,0.6603 -1.465506,1.26122 -2.220243,1.86501 -0.429988,0.34399 -0.904777,0.62967 -1.332148,0.9769 -0.05137,0.0417 -0.109742,0.11483 -0.08881,0.17762 0.02093,0.0628 0.121486,0.0537 0.177618,0.0888 0.181025,0.11315 0.360217,0.22969 0.53286,0.35524 0.399571,0.2906 0.444754,0.41478 0.888095,0.62167 0.288925,0.13483 0.589563,0.24329 0.888098,0.35524 0.175307,0.0657 0.352835,0.12618 0.532857,0.17762 0.02847,0.008 0.07557,-0.0265 0.08881,0 0.180994,0.36198 -2.106657,1.26605 -1.776192,1.33215 0.294521,0.0589 0.6112,0.16574 0.888097,0.26643 1.751621,0.63695 1.045208,0.85394 -0.44405,1.59857 -0.02106,0.0105 -0.783413,0.20937 -0.621667,0.53286 0.196924,0.39385 0.782568,0.24971 1.065717,0.53286"
       id="path4110-3" />
    <path
       style="display:inline;fill:none;stroke:#000000;stroke-width:0.264583px;stroke-linecap:butt;stroke-linejoin:miter;stroke-opacity:1"
       d="m 57.310234,210.98675 c -0.207222,0.38484 -0.606068,0.71772 -0.621668,1.15453 -0.0529,1.4812 0.677749,1.31578 1.598576,1.77619 0.132389,0.0662 0.340511,0.11915 0.355237,0.26643 0.0758,0.758 -1.299707,1.41246 -1.509765,2.04262 -0.0058,0.0176 0.798491,1.42176 0.621668,1.59858 -0.09361,0.0936 -0.25186,0.0949 -0.355238,0.17762 -0.390961,0.31277 -0.705887,0.5604 -0.621668,1.06572 0.04013,0.24079 0.122727,0.47261 0.177618,0.71048 0.03394,0.14708 0.132186,0.29946 0.08881,0.44404 -0.180398,0.60133 -0.976905,0.56139 -0.976905,1.15453"
       id="path4112-5" />
    <path
       style="display:inline;fill:#ddc6b7;fill-opacity:1;stroke:#000000;stroke-width:0.264583px;stroke-linecap:butt;stroke-linejoin:miter;stroke-opacity:1"
       d="m 49.295242,195.96859 c 35.415894,-6.4846 35.166484,-6.23519 35.166484,-6.23519 l -0.748223,21.94788 -35.415894,2.49408 z"
       id="path3576" />
    <path
       style="display:inline;fill:#5190b7;fill-opacity:1;stroke:#000000;stroke-width:0.264583px;stroke-linecap:butt;stroke-linejoin:miter;stroke-opacity:1"
       d="m 77.64766,193.58006 4.618107,-1.42096 -0.444051,4.26287 -4.351676,0.62167 z"
       id="path3939" />
    <path
       style="display:inline;fill:none;stroke:#000000;stroke-width:0.264583px;stroke-linecap:butt;stroke-linejoin:miter;stroke-opacity:1"
       d="m 83.065054,212.14128 c -0.29603,0.74008 -0.85746,1.42374 -0.8881,2.22024 -0.0103,0.26787 0.55589,-0.0235 0.79929,0.0888 0.1721,0.0794 0.2953,0.26423 0.35524,0.44405 0.41794,1.25382 -0.51819,1.52523 -0.71048,2.48667 -0.0832,0.41626 0.92033,1.54831 1.06572,2.04263 0.42704,1.45194 -2.16404,0.32263 -1.06572,1.42095"
       id="path4114-2" />
    <path
       style="display:inline;fill:none;stroke:#000000;stroke-width:0.264583px;stroke-linecap:butt;stroke-linejoin:miter;stroke-opacity:1"
       d="m 72.940744,195.88911 c -0.103365,0.19553 -2.587799,1.63164 -2.309053,1.68739 0.334243,0.0668 1.612866,-0.0602 1.776196,0.26643 0.159419,0.31883 -0.522224,0.48618 -0.799288,0.71047 -0.35941,0.29095 -0.706305,0.59715 -1.065715,0.8881 -0.342054,0.2769 -0.870173,0.46115 -0.976908,0.8881 -0.02773,0.1109 2.06172,0.56914 2.309053,0.71048 0.876972,0.50112 -1.687385,1.45271 -1.687385,1.68738 0,0.0936 0.181432,0.0496 0.26643,0.0888 0.147896,0.0683 2.354172,1.0206 2.220243,1.15453 -0.253283,0.25328 -2.7437,2.14083 -2.486673,2.39786 0.07547,0.0755 0.165912,0.14172 0.26643,0.17762 0.693906,0.24782 1.977612,0.50906 1.598575,0.8881 -0.39329,0.39329 -1.01229,0.46174 -1.509765,0.71047 -0.308785,0.1544 -0.59408,0.35193 -0.888098,0.53286 -0.106966,0.0658 -0.381871,0.21696 -0.26643,0.26643 0.48732,0.20885 1.034108,0.20622 1.509765,0.44405"
       id="path4108" />
    <path
       style="display:inline;fill:none;stroke:#000000;stroke-width:0.264583px;stroke-linecap:butt;stroke-linejoin:miter;stroke-opacity:1"
       d="m 64.77025,197.84293 c -1.480162,0.62166 -3.242948,0.79577 -4.440487,1.865 -0.08037,0.0718 3.503658,0.46705 3.285961,1.06572 -0.101166,0.27821 -0.316674,0.50824 -0.532857,0.71047 -0.705835,0.6603 -1.465506,1.26122 -2.220243,1.86501 -0.429988,0.34399 -0.904777,0.62967 -1.332148,0.9769 -0.05137,0.0417 -0.109742,0.11483 -0.08881,0.17762 0.02093,0.0628 0.121486,0.0537 0.177618,0.0888 0.181025,0.11315 0.360217,0.22969 0.53286,0.35524 0.399571,0.2906 0.444754,0.41478 0.888095,0.62167 0.288925,0.13483 0.589563,0.24329 0.888098,0.35524 0.175307,0.0657 0.352835,0.12618 0.532857,0.17762 0.02847,0.008 0.07557,-0.0265 0.08881,0 0.180994,0.36198 -2.106657,1.26605 -1.776192,1.33215 0.294521,0.0589 0.6112,0.16574 0.888097,0.26643 1.751621,0.63695 1.045208,0.85394 -0.44405,1.59857 -0.02106,0.0105 -0.783413,0.20937 -0.621667,0.53286 0.196924,0.39385 0.782568,0.24971 1.065717,0.53286"
       id="path4110" />
    <path
       style="display:inline;fill:none;stroke:#000000;stroke-width:0.264583px;stroke-linecap:butt;stroke-linejoin:miter;stroke-opacity:1"
       d="m 54.734752,199.08626 c -0.207222,0.38484 -0.606068,0.71772 -0.621668,1.15453 -0.0529,1.4812 0.677749,1.31578 1.598576,1.77619 0.132389,0.0662 0.340511,0.11915 0.355237,0.26643 0.0758,0.758 -1.299707,1.41246 -1.509765,2.04262 -0.0058,0.0176 0.798491,1.42176 0.621668,1.59858 -0.09361,0.0936 -0.25186,0.0949 -0.355238,0.17762 -0.390961,0.31277 -0.705887,0.5604 -0.621668,1.06572 0.04013,0.24079 0.122727,0.47261 0.177618,0.71048 0.03394,0.14708 0.132186,0.29946 0.08881,0.44404 -0.180398,0.60133 -0.976905,0.56139 -0.976905,1.15453"
       id="path4112" />
    <path
       style="display:inline;fill:none;stroke:#000000;stroke-width:0.264583px;stroke-linecap:butt;stroke-linejoin:miter;stroke-opacity:1"
       d="m 80.065197,208.97854 c 0.330576,-0.72531 0.923597,-1.38176 0.991732,-2.17593 0.0229,-0.26708 -0.556383,-0.003 -0.794216,-0.12636 -0.168173,-0.0874 -0.28252,-0.27785 -0.333921,-0.4603 -0.358395,-1.27212 0.589484,-1.49912 0.826863,-2.45043 0.102772,-0.41187 -0.846349,-1.58995 -0.96828,-2.09058 -0.358152,-1.47045 2.176837,-0.2203 1.131488,-1.36915"
       id="path4114" />
  </g>
  <g
     inkscape:groupmode="layer"
     id="layer5"
     inkscape:label="book"
     style="display:none"
     transform="translate(-59.373311,-161.03154)">
    <path
       style="fill:#e2e5e3;fill-opacity:0.720648;stroke:#000000;stroke-width:0.264583px;stroke-linecap:butt;stroke-linejoin:miter;stroke-opacity:1"
       d="m 124.77005,168.11598 20.46891,12.64256 -2.10709,6.17078 -19.56587,-12.49206 z"
       id="path4403" />
    <path
       style="fill:#b81c21;fill-opacity:1;stroke:#000000;stroke-width:0.264583px;stroke-linecap:butt;stroke-linejoin:miter;stroke-opacity:1"
       d="m 145.23896,180.75854 13.54561,-6.47179 -18.66283,-11.73952 -15.35169,5.56875 v 0 0"
       id="path4405" />
    <path
       style="fill:#e2e5e3;fill-opacity:0.720648;stroke:#000000;stroke-width:0.264583px;stroke-linecap:butt;stroke-linejoin:miter;stroke-opacity:1"
       d="m 143.13187,186.92932 13.84817,-6.89421 c 3.07555,-3.06177 2.4435,-4.83621 1.87854,-5.77435 -0.1326,-0.22019 -13.61962,6.49778 -13.61962,6.49778"
       id="path4407"
       sodipodi:nodetypes="ccsc" />
  </g>
  <g
     inkscape:groupmode="layer"
     id="layer3"
     inkscape:label="Map"
     style="display:none"
     transform="translate(-59.373311,-161.03154)">
    <path
       style="fill:#3544bb;fill-opacity:1;stroke:#000000;stroke-width:0.264583px;stroke-linecap:butt;stroke-linejoin:miter;stroke-opacity:1"
       d="m 98.378092,196.37188 30.597418,-1.43988 9.71918,35.99697 -41.756478,-0.71994 z"
       id="path2635" />
    <path
       sodipodi:type="star"
       style="fill:#354417;fill-opacity:1;fill-rule:evenodd;stroke:none;stroke-width:3.77953;stroke-linecap:butt;stroke-miterlimit:4;stroke-dasharray:none"
       id="path2725"
       inkscape:flatsided="false"
       sodipodi:sides="5"
       sodipodi:cx="473.45938"
       sodipodi:cy="716.99164"
       sodipodi:r1="25.858744"
       sodipodi:r2="20.920162"
       sodipodi:arg1="0.46364761"
       sodipodi:arg2="1.0919661"
       inkscape:rounded="0.05"
       inkscape:randomized="0.5"
       d="m 494.1574,740.35488 c -0.19406,0.69086 -7.06638,3.39952 -7.65254,3.49095 -0.58616,0.0914 -8.90276,7.4686 -9.4724,7.53074 -0.56963,0.0621 -10.6227,-20.45746 -11.18431,-20.75514 -0.5616,-0.29768 -12.70857,-13.8555 -12.97754,-14.48147 -0.26897,-0.62596 2.53034,5.15503 2.58274,4.30106 0.0524,-0.85396 -3.06244,-30.8184 -2.38553,-30.64607 0.6769,0.17233 35.6248,10.09668 36.42188,9.89685 0.79708,-0.19982 -2.9518,7.15538 -2.28671,7.70439 0.6651,0.54901 5.74047,9.36736 6.11638,10.08659 0.3759,0.71922 1.03209,22.18123 0.83803,22.8721 z"
       transform="matrix(0.26458333,0,0,0.26458333,-4.0332939,15.12713)"
       inkscape:transform-center-x="0.083258455"
       inkscape:transform-center-y="0.30377249" />
    <path
       sodipodi:type="star"
       style="fill:#354417;fill-opacity:1;fill-rule:evenodd;stroke:none;stroke-width:3.77953;stroke-linecap:butt;stroke-miterlimit:4;stroke-dasharray:none"
       id="path2865"
       inkscape:flatsided="false"
       sodipodi:sides="5"
       sodipodi:cx="441.48727"
       sodipodi:cy="791.82001"
       sodipodi:r1="50.983036"
       sodipodi:r2="50.983036"
       sodipodi:arg1="-0.54728438"
       sodipodi:arg2="0.08103415"
       inkscape:rounded="0.25"
       inkscape:randomized="0.5"
       d="m 490.78595,779.78829 c 7.78235,2.47451 -10.21852,21.72102 -6.12256,29.66269 4.09596,7.94168 -18.14334,-6.30596 -20.27649,1.33962 -2.13314,7.64558 19.61628,21.13447 10.93706,21.04712 -8.67921,-0.0874 -29.76343,15.80862 -37.5735,17.9636 -7.81007,2.15499 -20.65519,-23.16585 -24.9666,-29.87607 -4.31142,-6.71022 -23.54006,-50.64697 -21.96063,-57.51723 1.57943,-6.87026 10.22164,5.78555 12.72231,-0.41931 2.50068,-6.20487 15.76227,-37.72161 24.70112,-39.45083 8.93885,-1.72923 7.0789,27.60913 12.29125,33.10111 5.21236,5.49198 42.46569,21.67479 50.24804,24.1493 z"
       transform="matrix(0.26458333,0,0,0.26458333,-3.1412639,4.6937056)"
       inkscape:transform-center-x="0.15683537"
       inkscape:transform-center-y="-1.4945074" />
    <ellipse
       style="fill:#dd4417;fill-opacity:1;fill-rule:evenodd;stroke:none;stroke-width:2.01174;stroke-linecap:butt;stroke-miterlimit:4;stroke-dasharray:none"
       id="path3257"
       cx="122.69268"
       cy="204.17815"
       rx="1.4836817"
       ry="1.5010718" />
    <ellipse
       style="fill:#dd4417;fill-opacity:1;fill-rule:evenodd;stroke:none;stroke-width:1.21033;stroke-linecap:butt;stroke-miterlimit:4;stroke-dasharray:none"
       id="path3257-4"
       cx="119.64822"
       cy="219.32271"
       rx="0.85879433"
       ry="0.9386732" />
  </g>
</svg>
